<svg width="48" height="48" viewBox="0 0 48 48" fill="none" xmlns="http://www.w3.org/2000/svg">
<path fill-rule="evenodd" clip-rule="evenodd" d="M38 40C39.1046 40 40 39.1046 40 38C40 36.8954 39.1046 36 38 36C36.8954 36 36 36.8954 36 38C36 39.1046 36.8954 40 38 40ZM38 44C41.3137 44 44 41.3137 44 38C44 34.6863 41.3137 32 38 32C34.6863 32 32 34.6863 32 38C32 41.3137 34.6863 44 38 44Z" fill="#FBF8F0"/>
<path fill-rule="evenodd" clip-rule="evenodd" d="M31 8C28.2386 8 26 10.2386 26 13V35C26 39.9706 21.9706 44 17 44C12.0294 44 8 39.9706 8 35V20C8 18.8954 8.89543 18 10 18C11.1046 18 12 18.8954 12 20V35C12 37.7614 14.2386 40 17 40C19.7614 40 22 37.7614 22 35V13C22 8.02944 26.0294 4 31 4C35.9706 4 40 8.02944 40 13V26C40 27.1046 39.1046 28 38 28C36.8954 28 36 27.1046 36 26V13C36 10.2386 33.7614 8 31 8Z" fill="#FBF8F0"/>
<path d="M8.27239 4.9615C9.04414 3.63848 10.9557 3.63849 11.7275 4.9615L15.2454 10.9922C16.0232 12.3255 15.0615 14 13.5179 14H6.48202C4.93843 14 3.97669 12.3255 4.75446 10.9922L8.27239 4.9615Z" fill="#FBF8F0"/>
</svg>
