<svg width="16" height="16" viewBox="0 0 16 16" fill="none" xmlns="http://www.w3.org/2000/svg">
<path d="M6.6665 2H12.6665C12.8433 2 13.0129 2.07024 13.1379 2.19526C13.2629 2.32029 13.3332 2.48986 13.3332 2.66667V10" stroke="#4E5969" stroke-width="2"/>
<path d="M2.66651 13.3334V5.33341C2.66651 5.1566 2.73674 4.98703 2.86177 4.86201C2.98679 4.73699 3.15636 4.66675 3.33317 4.66675H9.99984C10.3682 4.66675 10.6665 4.96408 10.6665 5.33241V13.3361C10.6666 13.4234 10.6494 13.51 10.616 13.5907C10.5825 13.6714 10.5335 13.7447 10.4716 13.8064C10.4098 13.8681 10.3363 13.917 10.2556 13.9502C10.1748 13.9834 10.0882 14.0004 10.0008 14.0001H3.33184C3.24435 14.0001 3.15773 13.9828 3.07692 13.9493C2.99611 13.9158 2.9227 13.8667 2.8609 13.8047C2.79911 13.7428 2.75013 13.6693 2.71677 13.5884C2.68341 13.5076 2.66633 13.4209 2.66651 13.3334Z" stroke="#4E5969" stroke-width="2"/>
</svg>
