<svg width="14" height="12" viewBox="0 0 14 12" fill="none" xmlns="http://www.w3.org/2000/svg">
<path d="M11.8516 1.41184C10.9593 0.989789 10.0024 0.67884 9.00194 0.500747C8.98372 0.49731 8.96552 0.5059 8.95613 0.523079C8.83307 0.748701 8.69676 1.04304 8.6013 1.27439C7.52524 1.10833 6.45469 1.10833 5.40069 1.27439C5.30521 1.0379 5.16395 0.748701 5.04034 0.523079C5.03095 0.506473 5.01275 0.497883 4.99453 0.500747C3.99461 0.678271 3.03774 0.98922 2.14488 1.41184C2.13715 1.41528 2.13052 1.42101 2.12613 1.42845C0.311145 4.22357 -0.186054 6.94999 0.0578551 9.64261C0.0589587 9.65578 0.0661324 9.66838 0.0760655 9.67639C1.27354 10.5829 2.4335 11.1332 3.57191 11.498C3.59013 11.5037 3.60944 11.4969 3.62103 11.4814C3.89032 11.1023 4.13037 10.7026 4.33619 10.2823C4.34834 10.2576 4.33675 10.2284 4.31192 10.2187C3.93116 10.0698 3.5686 9.88827 3.21984 9.68212C3.19226 9.66552 3.19005 9.62484 3.21543 9.60537C3.28882 9.54868 3.36223 9.48969 3.43231 9.43014C3.44499 9.41926 3.46265 9.41697 3.47756 9.42384C5.76875 10.5022 8.24923 10.5022 10.5134 9.42384C10.5283 9.4164 10.546 9.4187 10.5592 9.42957C10.6293 9.48913 10.7027 9.54868 10.7766 9.60537C10.802 9.62484 10.8003 9.66552 10.7728 9.68212C10.424 9.89227 10.0614 10.0698 9.68013 10.2181C9.65531 10.2279 9.64427 10.2576 9.65641 10.2823C9.86665 10.702 10.1067 11.1017 10.371 11.4808C10.3821 11.4969 10.4019 11.5037 10.4201 11.498C11.5641 11.1332 12.724 10.5829 13.9215 9.67639C13.932 9.66838 13.9386 9.65635 13.9397 9.64318C14.2316 6.53022 13.4508 3.82615 11.8698 1.42902C11.8659 1.42101 11.8593 1.41528 11.8516 1.41184ZM4.67835 8.00308C3.98854 8.00308 3.42016 7.35027 3.42016 6.54855C3.42016 5.74683 3.97752 5.09401 4.67835 5.09401C5.38468 5.09401 5.94756 5.75256 5.93651 6.54855C5.93651 7.35027 5.37916 8.00308 4.67835 8.00308ZM9.33027 8.00308C8.64048 8.00308 8.0721 7.35027 8.0721 6.54855C8.0721 5.74683 8.62944 5.09401 9.33027 5.09401C10.0366 5.09401 10.5995 5.75256 10.5885 6.54855C10.5885 7.35027 10.0366 8.00308 9.33027 8.00308Z" fill="#FBF8F0"/>
</svg>
