<svg width="14" height="14" viewBox="0 0 14 14" fill="none" xmlns="http://www.w3.org/2000/svg">
<path fill-rule="evenodd" clip-rule="evenodd" d="M6.99757 0.5C5.37276 0.500843 3.80123 1.07632 2.56399 2.12352C1.32675 3.17072 0.504468 4.62137 0.244182 6.21607C-0.016103 7.81077 0.302576 9.44553 1.14324 10.828C1.98391 12.2106 3.29174 13.2507 4.83289 13.7624C5.17289 13.8255 5.30096 13.6148 5.30096 13.4356C5.30096 13.2564 5.29415 12.7369 5.29189 12.169C3.38788 12.5803 2.98555 11.3655 2.98555 11.3655C2.67501 10.5767 2.22621 10.3693 2.22621 10.3693C1.60514 9.94786 2.27268 9.95575 2.27268 9.95575C2.96062 10.0042 3.32215 10.6578 3.32215 10.6578C3.93189 11.6979 4.92355 11.397 5.31342 11.2212C5.37462 10.7806 5.55256 10.4809 5.74863 10.3107C4.22769 10.1394 2.62968 9.5557 2.62968 6.94807C2.62025 6.2718 2.87264 5.6178 3.33462 5.12138C3.26435 4.9501 3.02975 4.25818 3.40148 3.31836C3.40148 3.31836 3.97609 3.1358 5.28396 4.0159C6.40577 3.71087 7.58936 3.71087 8.71117 4.0159C10.0179 3.1358 10.5914 3.31836 10.5914 3.31836C10.9642 4.25593 10.7296 4.94784 10.6594 5.12138C11.1228 5.61788 11.3757 6.27302 11.3654 6.95033C11.3654 9.56359 9.76404 10.1394 8.24083 10.3073C8.48563 10.5192 8.70437 10.9328 8.70437 11.5683C8.70437 12.4789 8.69644 13.2113 8.69644 13.4356C8.69644 13.617 8.81997 13.8289 9.16677 13.7624C10.7081 13.2506 12.0161 12.2103 12.8567 10.8276C13.6974 9.44481 14.0159 7.80981 13.7553 6.21496C13.4947 4.62011 12.672 3.16945 11.4344 2.12243C10.1967 1.0754 8.62483 0.500309 6.99983 0.5H6.99757Z" fill="#FBF8F0"/>
<path d="M2.74524 10.2713C2.7305 10.3051 2.6761 10.3152 2.6319 10.2915C2.5877 10.2679 2.55484 10.2239 2.5707 10.189C2.58657 10.1541 2.63984 10.145 2.68404 10.1687C2.72824 10.1924 2.76224 10.2375 2.74524 10.2713Z" fill="#FBF8F0"/>
<path d="M3.02274 10.5788C2.99927 10.5906 2.97241 10.5939 2.94678 10.5881C2.92114 10.5824 2.89832 10.5679 2.8822 10.5473C2.838 10.5 2.82893 10.4346 2.86293 10.4053C2.89693 10.376 2.95814 10.3895 3.00234 10.4369C3.04654 10.4842 3.05674 10.5496 3.02274 10.5788Z" fill="#FBF8F0"/>
<path d="M3.29267 10.9699C3.25074 10.9992 3.17933 10.9699 3.13966 10.9113C3.1287 10.9008 3.11997 10.8882 3.11401 10.8743C3.10806 10.8603 3.10498 10.8454 3.10498 10.8302C3.10498 10.8151 3.10806 10.8001 3.11401 10.7861C3.11997 10.7722 3.1287 10.7596 3.13966 10.7491C3.1816 10.7209 3.253 10.7491 3.29267 10.8065C3.33234 10.864 3.33347 10.9406 3.29267 10.9699Z" fill="#FBF8F0"/>
<path d="M3.65852 11.3485C3.62112 11.3902 3.54519 11.3789 3.48286 11.3226C3.42052 11.2663 3.40579 11.1896 3.44319 11.1491C3.48059 11.1085 3.55652 11.1198 3.62112 11.175C3.68572 11.2302 3.69819 11.308 3.65852 11.3485Z" fill="#FBF8F0"/>
<path d="M4.17201 11.5695C4.15501 11.6225 4.07795 11.6462 4.00088 11.6236C3.92381 11.6011 3.87281 11.538 3.88755 11.4839C3.90228 11.4298 3.98048 11.405 4.05868 11.4298C4.13688 11.4546 4.18675 11.5143 4.17201 11.5695Z" fill="#FBF8F0"/>
<path d="M4.73201 11.6077C4.73201 11.663 4.66854 11.7103 4.58694 11.7114C4.50534 11.7125 4.43848 11.6675 4.43848 11.6122C4.43848 11.557 4.50194 11.5097 4.58354 11.5086C4.66514 11.5074 4.73201 11.5514 4.73201 11.6077Z" fill="#FBF8F0"/>
<path d="M5.25311 11.5209C5.26331 11.5761 5.20664 11.6336 5.12504 11.6471C5.04344 11.6606 4.97204 11.628 4.96184 11.5739C4.95164 11.5198 5.01058 11.4612 5.08991 11.4465C5.16924 11.4319 5.24291 11.4657 5.25311 11.5209Z" fill="#FBF8F0"/>
</svg>
