<svg width="30" height="30" viewBox="0 0 30 30" fill="none" xmlns="http://www.w3.org/2000/svg">
<rect width="30" height="30" rx="6" fill="#3B99FC"/>
<path d="M10.2755 11.916C12.8848 9.36133 17.1152 9.36133 19.7245 11.916L20.0385 12.2235C20.169 12.3512 20.169 12.5583 20.0385 12.686L18.9643 13.7378C18.8991 13.8017 18.7933 13.8017 18.7281 13.7378L18.2959 13.3147C16.4756 11.5325 13.5244 11.5325 11.7041 13.3147L11.2413 13.7678C11.1761 13.8317 11.0703 13.8317 11.0051 13.7678L9.93086 12.716C9.8004 12.5883 9.8004 12.3812 9.93086 12.2535L10.2755 11.916ZM21.9461 14.0912L22.9022 15.0272C23.0326 15.155 23.0326 15.3621 22.9022 15.4898L18.5912 19.7106C18.4607 19.8384 18.2492 19.8384 18.1187 19.7107C18.1187 19.7107 18.1187 19.7107 18.1187 19.7107L15.0591 16.715C15.0265 16.6831 14.9736 16.6831 14.941 16.715C14.941 16.715 14.941 16.715 14.941 16.715L11.8814 19.7106C11.7509 19.8384 11.5394 19.8384 11.4089 19.7107C11.4089 19.7107 11.4089 19.7107 11.4089 19.7107L7.09785 15.4897C6.96738 15.362 6.96738 15.1549 7.09785 15.0272L8.05391 14.0911C8.18438 13.9634 8.3959 13.9634 8.52636 14.0911L11.5861 17.0868C11.6187 17.1187 11.6716 17.1187 11.7042 17.0868C11.7042 17.0868 11.7042 17.0868 11.7042 17.0868L14.7637 14.0911C14.8942 13.9634 15.1057 13.9634 15.2362 14.0911C15.2362 14.0911 15.2362 14.0911 15.2362 14.0911L18.2959 17.0868C18.3285 17.1187 18.3814 17.1187 18.414 17.0868L21.4736 14.0912C21.6041 13.9634 21.8156 13.9634 21.9461 14.0912Z" fill="white"/>
</svg>
