<svg width="16" height="24" viewBox="0 0 16 24" fill="none" xmlns="http://www.w3.org/2000/svg">
<path d="M6 2C6 0.895431 6.89543 0 8 0C9.10457 0 10 0.895431 10 2C13.3137 2 16 4.68629 16 8C16 9.10457 15.1046 10 14 10C12.8954 10 12 9.10457 12 8C12 6.89543 11.1046 6 10 6H5.48683C4.66568 6 4 6.66568 4 7.48683C4 8.12681 4.40952 8.69499 5.01665 8.89737L12.2483 11.3079C14.4888 12.0547 16 14.1515 16 16.5132C16 19.5435 13.5435 22 10.5132 22H10C10 23.1046 9.10457 24 8 24C6.89543 24 6 23.1046 6 22C2.68629 22 0 19.3137 0 16C0 14.8954 0.89543 14 2 14C3.10457 14 4 14.8954 4 16C4 17.1046 4.89543 18 6 18H10.5132C11.3343 18 12 17.3343 12 16.5132C12 15.8732 11.5905 15.305 10.9833 15.1026L3.75174 12.6921C1.51124 11.9453 0 9.84853 0 7.48683C0 4.45654 2.45654 2 5.48683 2H6Z" fill="#FBF8F0"/>
</svg>
