<svg xmlns="http://www.w3.org/2000/svg" xmlns:xlink="http://www.w3.org/1999/xlink" id="body_1" width="22" height="22">
<g transform="matrix(0.73333335 0 0 0.73333335 0 0)">
	<g clip-path="url(#1)" >
        <path d="M6.2484 0L23.7504 0C 27.2028 0 30 3.0096 30 6.7224L30 6.7224L30 23.2776C 30 26.9904 27.2028 30 23.7516 30L23.7516 30L6.2484 30C 2.7972 30 0 26.9904 0 23.2776L0 23.2776L0 6.7224C 0 3.0096 2.7972 0 6.2484 0z" stroke="none" fill="#0052FF" fill-rule="nonzero" />
        <path d="M15 4.34521C 20.8848 4.34521 25.6548 9.11522 25.6548 15C 25.6548 20.8848 20.8848 25.6548 15 25.6548C 9.11522 25.6548 4.34521 20.8848 4.34521 15C 4.34521 9.11522 9.11522 4.34521 15 4.34521z" stroke="none" fill="#FFFFFF" fill-rule="nonzero" />
        <path d="M12.3757 11.5945L17.6233 11.5945C 18.0553 11.5945 18.4045 11.9713 18.4045 12.4345L18.4045 12.4345L18.4045 17.5645C 18.4045 18.0289 18.0541 18.4045 17.6233 18.4045L17.6233 18.4045L12.3757 18.4045C 11.9437 18.4045 11.5945 18.0277 11.5945 17.5645L11.5945 17.5645L11.5945 12.4345C 11.5945 11.9713 11.9449 11.5945 12.3757 11.5945z" stroke="none" fill="#0052FF" fill-rule="nonzero" />
	</g>
</g>
</svg>