<svg width="48" height="48" viewBox="0 0 48 48" fill="none" xmlns="http://www.w3.org/2000/svg">
<path fill-rule="evenodd" clip-rule="evenodd" d="M24 40C32.8366 40 40 32.8366 40 24C40 15.1634 32.8366 8 24 8C15.1634 8 8 15.1634 8 24C8 32.8366 15.1634 40 24 40ZM24 44C35.0457 44 44 35.0457 44 24C44 12.9543 35.0457 4 24 4C12.9543 4 4 12.9543 4 24C4 35.0457 12.9543 44 24 44Z" fill="#FBF8F0"/>
<path d="M22 14C22 12.8954 22.8954 12 24 12C25.1046 12 26 12.8954 26 14C29.3137 14 32 16.6863 32 20C32 21.1046 31.1046 22 30 22C28.8954 22 28 21.1046 28 20C28 18.8954 27.1046 18 26 18H21.4868C20.6657 18 20 18.6657 20 19.4868C20 20.1268 20.4095 20.695 21.0167 20.8974L28.2483 23.3079C30.4888 24.0547 32 26.1515 32 28.5132C32 31.5435 29.5435 34 26.5132 34H26C26 35.1046 25.1046 36 24 36C22.8954 36 22 35.1046 22 34C18.6863 34 16 31.3137 16 28C16 26.8954 16.8954 26 18 26C19.1046 26 20 26.8954 20 28C20 29.1046 20.8954 30 22 30H26.5132C27.3343 30 28 29.3343 28 28.5132C28 27.8732 27.5905 27.305 26.9833 27.1026L19.7517 24.6921C17.5112 23.9453 16 21.8485 16 19.4868C16 16.4565 18.4565 14 21.4868 14H22Z" fill="#FBF8F0"/>
</svg>
