<svg width="32" height="40" viewBox="0 0 32 40" fill="none" xmlns="http://www.w3.org/2000/svg">
<path fill-rule="evenodd" clip-rule="evenodd" d="M23 4C20.2386 4 18 6.23858 18 9V31C18 35.9706 13.9706 40 9 40C4.02944 40 0 35.9706 0 31V16C0 14.8954 0.89543 14 2 14C3.10457 14 4 14.8954 4 16V31C4 33.7614 6.23858 36 9 36C11.7614 36 14 33.7614 14 31V9C14 4.02944 18.0294 0 23 0C27.9706 0 32 4.02944 32 9V22C32 23.1046 31.1046 24 30 24C28.8954 24 28 23.1046 28 22V9C28 6.23858 25.7614 4 23 4Z" fill="#FBF8F0"/>
</svg>
