<svg width="48" height="48" viewBox="0 0 48 48" fill="none" xmlns="http://www.w3.org/2000/svg">
<path fill-rule="evenodd" clip-rule="evenodd" d="M27.171 10.8023L25.5936 8.72202C24.7933 7.66655 23.2066 7.66655 22.4063 8.72202L20.8289 10.8023C19.9118 12.0117 18.4137 12.6323 16.9101 12.4255L14.3237 12.0699C13.0115 11.8895 11.8895 13.0115 12.0699 14.3237L12.4255 16.9101C12.6323 18.4137 12.0117 19.9119 10.8023 20.8289L8.72202 22.4063C7.66655 23.2066 7.66655 24.7933 8.72202 25.5936L10.8023 27.171C12.0117 28.088 12.6323 29.5862 12.4255 31.0898L12.0699 33.6762C11.8895 34.9884 13.0115 36.1104 14.3237 35.9299L16.9101 35.5743C18.4137 35.3676 19.9118 35.9882 20.8289 37.1975L22.4063 39.2778C23.2066 40.3333 24.7933 40.3333 25.5936 39.2779L27.171 37.1975C28.088 35.9882 29.5862 35.3676 31.0898 35.5743L33.6762 35.9299C34.9884 36.1104 36.1104 34.9884 35.9299 33.6762L35.5743 31.0898C35.3676 29.5862 35.9882 28.088 37.1975 27.171L39.2778 25.5936C40.3333 24.7933 40.3333 23.2066 39.2779 22.4063L37.1975 20.8289C35.9882 19.9118 35.3676 18.4137 35.5743 16.9101L35.9299 14.3237C36.1104 13.0115 34.9884 11.8895 33.6762 12.0699L31.0898 12.4255C29.5862 12.6323 28.088 12.0117 27.171 10.8023ZM28.7809 6.30522C26.38 3.13882 21.6199 3.13882 19.2189 6.30522L17.6415 8.38552C17.5979 8.44311 17.5265 8.47266 17.4549 8.46282L14.8686 8.10721C10.9319 7.56594 7.56594 10.9319 8.10721 14.8686L8.46282 17.4549C8.47266 17.5265 8.44311 17.5979 8.38552 17.6415L6.30522 19.2189C3.13882 21.6199 3.13882 26.38 6.30522 28.7809L8.38552 30.3583C8.44311 30.402 8.47266 30.4733 8.46282 30.5449L8.10721 33.1313C7.56594 37.068 10.9319 40.4339 14.8686 39.8927L17.4549 39.5371C17.5265 39.5272 17.5979 39.5568 17.6415 39.6143L19.2189 41.6946C21.6199 44.861 26.38 44.861 28.7809 41.6946L30.3583 39.6143C30.402 39.5568 30.4733 39.5272 30.5449 39.5371L33.1313 39.8927C37.068 40.4339 40.4339 37.068 39.8927 33.1313L39.5371 30.5449C39.5272 30.4733 39.5568 30.402 39.6143 30.3583L41.6946 28.7809C44.861 26.38 44.861 21.6199 41.6946 19.2189L39.6143 17.6415C39.5568 17.5979 39.5272 17.5265 39.5371 17.4549L39.8927 14.8686C40.4339 10.9319 37.068 7.56594 33.1313 8.10721L30.5449 8.46282C30.4733 8.47266 30.402 8.44311 30.3583 8.38552L28.7809 6.30522Z" fill="#FBF8F0"/>
<path d="M29.4142 21.4142L21.4142 29.4142C20.6332 30.1953 19.3668 30.1953 18.5858 29.4142C17.8047 28.6332 17.8047 27.3668 18.5858 26.5858L26.5858 18.5858C27.3668 17.8047 28.6332 17.8047 29.4142 18.5858C30.1953 19.3668 30.1953 20.6332 29.4142 21.4142Z" fill="#FBF8F0"/>
<path d="M22 20C22 21.1046 21.1046 22 20 22C18.8954 22 18 21.1046 18 20C18 18.8954 18.8954 18 20 18C21.1046 18 22 18.8954 22 20Z" fill="#FBF8F0"/>
<path d="M26 28C26 29.1046 26.8954 30 28 30C29.1046 30 30 29.1046 30 28C30 26.8954 29.1046 26 28 26C26.8954 26 26 26.8954 26 28Z" fill="#FBF8F0"/>
</svg>
