<svg width="12" height="12" viewBox="0 0 12 12" fill="none" xmlns="http://www.w3.org/2000/svg">
<path d="M11.4142 3.41421L3.41421 11.4142C2.63317 12.1953 1.36684 12.1953 0.585787 11.4142C-0.195262 10.6332 -0.195262 9.36684 0.585787 8.58579L8.58579 0.585787C9.36684 -0.195262 10.6332 -0.195262 11.4142 0.585787C12.1953 1.36684 12.1953 2.63317 11.4142 3.41421Z" fill="#FBF8F0"/>
<path d="M4 2C4 3.10457 3.10457 4 2 4C0.89543 4 4.76837e-07 3.10457 4.76837e-07 2C4.76837e-07 0.89543 0.89543 4.76837e-07 2 4.76837e-07C3.10457 4.76837e-07 4 0.89543 4 2Z" fill="#FBF8F0"/>
<path d="M8 10C8 11.1046 8.89543 12 10 12C11.1046 12 12 11.1046 12 10C12 8.89543 11.1046 8 10 8C8.89543 8 8 8.89543 8 10Z" fill="#FBF8F0"/>
</svg>
