<svg xmlns="http://www.w3.org/2000/svg" xmlns:xlink="http://www.w3.org/1999/xlink" id="body_1" width="22" height="22">

<g transform="matrix(0.73333335 0 0 0.73333335 0 0)">
    <path d="M0 6C 0 2.6862915 2.6862915 0 6 0L6 0L24 0C 27.31371 0 30 2.6862915 30 6L30 6L30 24C 30 27.31371 27.31371 30 24 30L24 30L6 30C 2.6862915 30 0 27.31371 0 24L0 24L0 6z" stroke="none" fill="#3B99FC" fill-rule="nonzero" />
    <path d="M10.2755 11.916C 12.8848 9.36133 17.1152 9.36133 19.7245 11.916L19.7245 11.916L20.0385 12.2235C 20.169 12.3512 20.169 12.5583 20.0385 12.686L20.0385 12.686L18.9643 13.7378C 18.8991 13.8017 18.7933 13.8017 18.7281 13.7378L18.7281 13.7378L18.2959 13.3147C 16.4756 11.5325 13.5244 11.5325 11.7041 13.3147L11.7041 13.3147L11.2413 13.7678C 11.1761 13.8317 11.0703 13.8317 11.0051 13.7678L11.0051 13.7678L9.93086 12.716C 9.8004 12.5883 9.8004 12.3812 9.93086 12.2535L9.93086 12.2535L10.2755 11.916zM21.9461 14.0912L22.9022 15.0272C 23.0326 15.155 23.0326 15.3621 22.9022 15.4898L22.9022 15.4898L18.5912 19.7106C 18.4607 19.8384 18.2492 19.8384 18.1187 19.7107C 18.1187 19.7107 18.1187 19.7107 18.1187 19.7107L18.1187 19.7107L15.0591 16.715C 15.0265 16.6831 14.9736 16.6831 14.941 16.715C 14.941 16.715 14.941 16.715 14.941 16.715L14.941 16.715L11.8814 19.7106C 11.7509 19.8384 11.5394 19.8384 11.4089 19.7107C 11.4089 19.7107 11.4089 19.7107 11.4089 19.7107L11.4089 19.7107L7.09785 15.4897C 6.96738 15.362 6.96738 15.1549 7.09785 15.0272L7.09785 15.0272L8.05391 14.0911C 8.18438 13.9634 8.3959 13.9634 8.52636 14.0911L8.52636 14.0911L11.5861 17.0868C 11.6187 17.1187 11.6716 17.1187 11.7042 17.0868C 11.7042 17.0868 11.7042 17.0868 11.7042 17.0868L11.7042 17.0868L14.7637 14.0911C 14.8942 13.9634 15.1057 13.9634 15.2362 14.0911C 15.2362 14.0911 15.2362 14.0911 15.2362 14.0911L15.2362 14.0911L18.2959 17.0868C 18.3285 17.1187 18.3814 17.1187 18.414 17.0868L18.414 17.0868L21.4736 14.0912C 21.6041 13.9634 21.8156 13.9634 21.9461 14.0912z" stroke="none" fill="#FFFFFF" fill-rule="nonzero" />
</g>
</svg>