<svg width="42" height="42" viewBox="0 0 42 42" fill="none" xmlns="http://www.w3.org/2000/svg">
<path fill-rule="evenodd" clip-rule="evenodd" d="M24.171 7.80232L22.5936 5.72202C21.7933 4.66655 20.2066 4.66655 19.4063 5.72202L17.8289 7.80232C16.9118 9.01171 15.4137 9.63227 13.9101 9.42554L11.3237 9.06993C10.0115 8.8895 8.8895 10.0115 9.06993 11.3237L9.42554 13.9101C9.63227 15.4137 9.01171 16.9119 7.80232 17.8289L5.72202 19.4063C4.66655 20.2066 4.66655 21.7933 5.72202 22.5936L7.80232 24.171C9.01171 25.088 9.63227 26.5862 9.42554 28.0898L9.06993 30.6762C8.8895 31.9884 10.0115 33.1104 11.3237 32.9299L13.9101 32.5743C15.4137 32.3676 16.9118 32.9882 17.8289 34.1975L19.4063 36.2778C20.2066 37.3333 21.7933 37.3333 22.5936 36.2779L24.171 34.1975C25.088 32.9882 26.5862 32.3676 28.0898 32.5743L30.6762 32.9299C31.9884 33.1104 33.1104 31.9884 32.9299 30.6762L32.5743 28.0898C32.3676 26.5862 32.9882 25.088 34.1975 24.171L36.2778 22.5936C37.3333 21.7933 37.3333 20.2066 36.2779 19.4063L34.1975 17.8289C32.9882 16.9118 32.3676 15.4137 32.5743 13.9101L32.9299 11.3237C33.1104 10.0115 31.9884 8.8895 30.6762 9.06993L28.0898 9.42554C26.5862 9.63227 25.088 9.01171 24.171 7.80232ZM25.7809 3.30522C23.38 0.13882 18.6199 0.138819 16.2189 3.30522L14.6415 5.38552C14.5979 5.44311 14.5265 5.47266 14.4549 5.46282L11.8686 5.10721C7.93186 4.56594 4.56594 7.93186 5.10721 11.8686L5.46282 14.4549C5.47266 14.5265 5.44311 14.5979 5.38552 14.6415L3.30522 16.2189C0.13882 18.6199 0.138819 23.38 3.30522 25.7809L5.38552 27.3583C5.44311 27.402 5.47266 27.4733 5.46282 27.5449L5.10721 30.1313C4.56594 34.068 7.93186 37.4339 11.8686 36.8927L14.4549 36.5371C14.5265 36.5272 14.5979 36.5568 14.6415 36.6143L16.2189 38.6946C18.6199 41.861 23.38 41.861 25.7809 38.6946L27.3583 36.6143C27.402 36.5568 27.4733 36.5272 27.5449 36.5371L30.1313 36.8927C34.068 37.4339 37.4339 34.068 36.8927 30.1313L36.5371 27.5449C36.5272 27.4733 36.5568 27.402 36.6143 27.3583L38.6946 25.7809C41.861 23.38 41.861 18.6199 38.6946 16.2189L36.6143 14.6415C36.5568 14.5979 36.5272 14.5265 36.5371 14.4549L36.8927 11.8686C37.4339 7.93186 34.068 4.56594 30.1313 5.10721L27.5449 5.46282C27.4733 5.47266 27.402 5.44311 27.3583 5.38552L25.7809 3.30522Z" fill="#FBF8F0"/>
</svg>
