<svg width="16" height="16" viewBox="0 0 16 16" fill="none" xmlns="http://www.w3.org/2000/svg">
<path fill-rule="evenodd" clip-rule="evenodd" d="M13.3335 4.11384V3.33337C13.3335 2.2288 12.4381 1.33337 11.3335 1.33337H3.3335C2.22893 1.33337 1.3335 2.2288 1.3335 3.33337V12.6667C1.3335 13.7713 2.22893 14.6667 3.3335 14.6667H12.6668C13.7714 14.6667 14.6668 13.7713 14.6668 12.6667V6.00004C14.6668 5.12923 14.1103 4.3884 13.3335 4.11384ZM2.66683 3.33337C2.66683 2.96518 2.96531 2.66671 3.3335 2.66671H11.3335C11.7017 2.66671 12.0002 2.96518 12.0002 3.33337V4.00004H3.3335C2.96531 4.00004 2.66683 3.70156 2.66683 3.33337ZM2.66683 5.21957C2.87535 5.29327 3.09974 5.33337 3.3335 5.33337H12.6668C13.035 5.33337 13.3335 5.63185 13.3335 6.00004V7.33337H11.3335C10.2289 7.33337 9.3335 8.2288 9.3335 9.33337C9.3335 10.4379 10.2289 11.3334 11.3335 11.3334H13.3335V12.6667C13.3335 13.0349 13.035 13.3334 12.6668 13.3334H3.3335C2.96531 13.3334 2.66683 13.0349 2.66683 12.6667V5.21957ZM11.3335 8.66671H13.3335V10H11.3335C10.9653 10 10.6668 9.70156 10.6668 9.33337C10.6668 8.96518 10.9653 8.66671 11.3335 8.66671Z" fill="white"/>
</svg>
