<svg width="912" height="471" viewBox="0 0 912 471" fill="none" xmlns="http://www.w3.org/2000/svg">
<path d="M374.372 11.578C372.38 59.6784 371.383 111.194 371.383 166.125C371.383 221.341 372.38 272.999 374.372 321.1H221.532L205.748 309.857L118.216 87.9976L125.9 321.1H16.1804L0.396393 309.857C0.396393 309.857 19.5956 210.947 19.5956 166.125C19.5956 118.31 18.4572 66.7936 16.1804 11.578L157.506 0.335205L173.289 11.578L277.032 251.084L269.775 11.578H374.372Z" fill="#0A5771"/>
<path d="M358.588 0.335205C356.596 48.4356 355.6 99.9516 355.6 154.883C355.6 210.098 356.596 261.757 358.588 309.857H205.748L102.432 76.7552L110.117 309.857H0.396393C2.67319 254.641 3.81199 202.983 3.81199 154.883C3.81199 107.067 2.67319 55.5512 0.396393 0.335205H157.506L261.249 239.841L253.991 0.335205H358.588Z" fill="#1EE7D4"/>
<path d="M658.896 90.6808H426.968V135.446C441.463 135.731 463.206 135.873 492.198 135.873C539.288 135.873 634.135 122.694 634.135 122.694L644.827 133.315V216.877C593.098 214.888 538.526 213.893 481.113 213.893C457.238 213.893 439.19 214.035 426.968 214.319V320.478H326.352L315.66 309.857C315.66 309.857 329.762 210.654 329.762 165.716C329.762 117.682 328.626 66.0952 326.352 10.9556H658.896V90.6808Z" fill="#FFA430"/>
<path d="M648.204 80.0604H416.276V124.826C430.771 125.11 452.514 125.252 481.506 125.252C531.529 125.252 582.406 124.4 634.135 122.694V206.257C582.406 204.267 527.834 203.272 470.421 203.272C446.546 203.272 428.497 203.414 416.276 203.699V309.857H315.66C317.934 254.717 319.07 203.13 319.07 155.096C319.07 107.062 317.934 55.4752 315.66 0.335205H648.204V80.0604Z" fill="#FDD05B"/>
<path d="M911.604 98.796C866.98 97.3748 823.636 96.5224 781.571 96.238V318.787H674.986L664.602 309.857L674.986 96.238C632.636 96.5224 589.434 97.3748 545.379 98.796L534.995 89.8664L545.379 9.2648L901.22 0.335205L911.604 9.2648V98.796Z" fill="#D34949"/>
<path d="M901.22 89.8664C856.597 88.4452 813.252 87.5924 771.187 87.3084V309.857H664.602V87.3084C622.252 87.5924 579.05 88.4452 534.995 89.8664V0.335205H901.22V89.8664Z" fill="#F8838B"/>
<path d="M112.545 377.132C128.25 377.132 140.655 379.032 149.76 382.833C158.866 386.634 165.235 391.897 168.869 398.621C172.503 405.346 174.32 413.595 174.32 423.369C174.32 432.641 172.231 440.744 168.054 447.677C163.878 454.611 157.612 459.978 149.259 463.779C140.906 467.58 130.631 469.48 118.434 469.48H95.7548C88.0696 469.48 80.3008 469.438 72.4484 469.355C73.1168 452.898 73.4508 437.57 73.4508 423.369C73.4508 409 73.1168 394.006 72.4484 378.385C82.3892 377.55 95.7548 377.132 112.545 377.132ZM121.943 444.545C129.712 444.545 134.891 442.665 137.48 438.906C140.07 435.147 141.365 429.968 141.365 423.369C141.365 417.02 140.008 411.882 137.292 407.956C134.578 404.03 129.461 402.067 121.943 402.067C113.84 402.067 107.784 402.318 103.774 402.819V444.545H121.943Z" fill="#FF9E9F"/>
<path d="M240.104 470.732C220.974 470.732 206.898 466.576 197.876 458.264C188.855 449.952 184.344 438.278 184.344 423.242C184.344 408.373 188.834 396.762 197.814 388.408C206.794 380.054 220.89 375.878 240.104 375.878C259.4 375.878 273.538 380.054 282.518 388.408C291.498 396.762 295.988 408.373 295.988 423.242C295.988 438.362 291.519 450.057 282.581 458.327C273.643 466.597 259.484 470.732 240.104 470.732ZM240.104 445.17C249.376 445.17 256.059 443.395 260.152 439.845C264.245 436.294 266.292 430.76 266.292 423.242C266.292 415.891 264.245 410.42 260.152 406.828C256.059 403.236 249.376 401.44 240.104 401.44C230.914 401.44 224.274 403.236 220.18 406.828C216.087 410.42 214.04 415.891 214.04 423.242C214.04 430.677 216.087 436.19 220.18 439.782C224.274 443.374 230.914 445.17 240.104 445.17Z" fill="#FF9E9F"/>
<path d="M336.586 444.168C360.812 444.001 380.86 443.583 396.732 442.915C395.646 447.175 394.978 451.268 394.727 455.195C394.476 459.121 394.351 463.882 394.351 469.479H306.013C306.681 453.273 307.015 438.112 307.015 423.994C307.015 409.877 306.681 394.715 306.013 378.51H336.586V444.168Z" fill="#FF9E9F"/>
<path d="M434.824 444.168C459.049 444.001 479.098 443.583 494.969 442.915C493.883 447.175 493.215 451.268 492.964 455.195C492.714 459.121 492.588 463.882 492.588 469.479H404.25C404.918 453.273 405.252 438.112 405.252 423.994C405.252 409.877 404.918 394.715 404.25 378.51H434.824V444.168Z" fill="#FF9E9F"/>
<path d="M584.06 469.476C582.473 464.714 580.343 458.742 577.67 451.558H537.698L531.433 469.476H499.982L535.067 378.506H581.178L616.514 469.476H584.06ZM570.528 432.01C567.353 423.239 564.095 414.468 560.754 405.697L557.746 397.552C554.823 405.154 550.521 416.64 544.84 432.01H570.528Z" fill="#FF9E9F"/>
<path d="M723.772 408.832C723.772 416.1 721.997 422.239 718.446 427.252C714.896 432.264 708.819 435.897 700.215 438.153C701.217 439.489 701.928 440.534 702.345 441.285L722.644 469.478H688.562C684.886 462.628 679.08 452.938 671.145 440.408H652.725V469.478H623.154C623.822 453.272 624.156 438.111 624.156 423.994C624.156 409.876 623.822 394.714 623.154 378.509H652.725V378.634H678.412C695.286 378.634 707.065 381.349 713.748 386.779C720.43 392.208 723.772 399.56 723.772 408.832ZM652.725 402.692V416.976H669.641C676.742 416.976 682.109 416.747 685.742 416.288C689.376 415.828 691.903 415.097 693.323 414.095C694.744 413.092 695.454 411.63 695.454 409.709C695.454 407.871 694.785 406.451 693.449 405.449C692.112 404.446 689.606 403.736 685.93 403.318C682.255 402.901 676.825 402.692 669.641 402.692H652.725Z" fill="#FF9E9F"/>
<path d="M733.796 458.704C736.636 454.444 738.996 450.476 740.876 446.8C742.755 443.125 744.572 438.864 746.326 434.019C752.257 437.444 759.149 440.118 767.001 442.039C774.854 443.96 782.163 444.921 788.929 444.921C795.863 444.921 800.75 444.315 803.59 443.104C806.43 441.892 807.85 440.577 807.85 439.157C807.85 434.061 800.081 431.513 784.544 431.513C767.502 431.513 755.139 429.738 747.454 426.188C739.769 422.638 735.926 416.895 735.926 408.959C735.926 397.682 740.604 389.37 749.96 384.024C759.316 378.677 771.47 376.004 786.423 376.004C795.111 376.004 804.028 377.111 813.175 379.325C822.322 381.538 830.572 384.566 837.923 388.409C835.5 393.922 832.952 400.647 830.279 408.583C829.778 410.254 829.36 411.507 829.026 412.342C824.766 408.917 818.334 406.056 809.73 403.759C801.125 401.462 793.524 400.313 786.924 400.313C778.988 400.313 773.642 400.835 770.886 401.879C768.129 402.923 766.751 404.448 766.751 406.453C766.751 408.458 768.651 410.066 772.452 411.277C776.253 412.488 781.745 413.094 788.929 413.094C806.639 413.094 819.503 415.12 827.522 419.171C835.542 423.222 839.552 429.425 839.552 437.778C839.552 449.473 835.291 457.89 826.771 463.027C818.25 468.164 805.344 470.733 788.052 470.733C778.78 470.733 769.34 469.71 759.734 467.663C750.127 465.616 741.481 462.63 733.796 458.704Z" fill="#FF9E9F"/>
<path d="M112.545 367.932C128.25 367.932 140.655 369.832 149.76 373.633C158.866 377.434 165.235 382.697 168.869 389.421C172.503 396.146 174.32 404.395 174.32 414.169C174.32 423.441 172.231 431.544 168.054 438.477C163.878 445.411 157.612 450.778 149.259 454.579C140.906 458.38 130.631 460.28 118.434 460.28H95.7548C88.0696 460.28 80.3008 460.238 72.4484 460.155C73.1168 443.698 73.4508 428.37 73.4508 414.169C73.4508 399.8 73.1168 384.806 72.4484 369.185C82.3892 368.35 95.7548 367.932 112.545 367.932ZM121.943 435.345C129.712 435.345 134.891 433.465 137.48 429.706C140.07 425.947 141.365 420.768 141.365 414.169C141.365 407.82 140.008 402.682 137.292 398.756C134.578 394.83 129.461 392.867 121.943 392.867C113.84 392.867 107.784 393.118 103.774 393.619V435.345H121.943Z" fill="#0B566F"/>
<path d="M240.104 461.532C220.974 461.532 206.898 457.376 197.876 449.064C188.855 440.752 184.344 429.078 184.344 414.042C184.344 399.173 188.834 387.562 197.814 379.208C206.794 370.854 220.89 366.678 240.104 366.678C259.4 366.678 273.538 370.854 282.518 379.208C291.498 387.562 295.988 399.173 295.988 414.042C295.988 429.162 291.519 440.857 282.581 449.127C273.643 457.397 259.484 461.532 240.104 461.532ZM240.104 435.97C249.376 435.97 256.059 434.195 260.152 430.645C264.245 427.094 266.292 421.56 266.292 414.042C266.292 406.691 264.245 401.22 260.152 397.628C256.059 394.036 249.376 392.24 240.104 392.24C230.914 392.24 224.274 394.036 220.18 397.628C216.087 401.22 214.04 406.691 214.04 414.042C214.04 421.477 216.087 426.99 220.18 430.582C224.274 434.174 230.914 435.97 240.104 435.97Z" fill="#0B566F"/>
<path d="M336.586 434.968C360.812 434.801 380.86 434.383 396.732 433.715C395.646 437.975 394.978 442.068 394.727 445.995C394.476 449.921 394.351 454.682 394.351 460.279H306.013C306.681 444.073 307.015 428.912 307.015 414.794C307.015 400.677 306.681 385.515 306.013 369.31H336.586V434.968Z" fill="#0B566F"/>
<path d="M434.824 434.968C459.049 434.801 479.098 434.383 494.969 433.715C493.883 437.975 493.215 442.068 492.964 445.995C492.714 449.921 492.588 454.682 492.588 460.279H404.25C404.918 444.073 405.252 428.912 405.252 414.794C405.252 400.677 404.918 385.515 404.25 369.31H434.824V434.968Z" fill="#0B566F"/>
<path d="M584.06 460.276C582.473 455.514 580.343 449.542 577.67 442.358H537.698L531.433 460.276H499.982L535.067 369.306H581.178L616.514 460.276H584.06ZM570.528 422.81C567.353 414.039 564.095 405.268 560.754 396.497L557.746 388.352C554.823 395.954 550.521 407.44 544.84 422.81H570.528Z" fill="#0B566F"/>
<path d="M723.772 399.632C723.772 406.9 721.997 413.039 718.446 418.052C714.896 423.064 708.819 426.697 700.215 428.953C701.217 430.289 701.928 431.334 702.345 432.085L722.644 460.278H688.562C684.886 453.428 679.08 443.738 671.145 431.208H652.725V460.278H623.154C623.822 444.072 624.156 428.911 624.156 414.794C624.156 400.676 623.822 385.514 623.154 369.309H652.725V369.434H678.412C695.286 369.434 707.065 372.149 713.748 377.579C720.43 383.008 723.772 390.36 723.772 399.632ZM652.725 393.492V407.776H669.641C676.742 407.776 682.109 407.547 685.742 407.088C689.376 406.628 691.903 405.897 693.323 404.895C694.744 403.892 695.454 402.43 695.454 400.509C695.454 398.671 694.785 397.251 693.449 396.249C692.112 395.246 689.606 394.536 685.93 394.118C682.255 393.701 676.825 393.492 669.641 393.492H652.725Z" fill="#0B566F"/>
<path d="M733.796 449.504C736.636 445.244 738.996 441.276 740.876 437.6C742.755 433.925 744.572 429.664 746.326 424.819C752.257 428.244 759.149 430.918 767.001 432.839C774.854 434.76 782.163 435.721 788.929 435.721C795.863 435.721 800.75 435.115 803.59 433.904C806.43 432.692 807.85 431.377 807.85 429.957C807.85 424.861 800.081 422.313 784.544 422.313C767.502 422.313 755.139 420.538 747.454 416.988C739.769 413.438 735.926 407.695 735.926 399.759C735.926 388.482 740.604 380.17 749.96 374.824C759.316 369.477 771.47 366.804 786.423 366.804C795.111 366.804 804.028 367.911 813.175 370.125C822.322 372.338 830.572 375.366 837.923 379.209C835.5 384.722 832.952 391.447 830.279 399.383C829.778 401.054 829.36 402.307 829.026 403.142C824.766 399.717 818.334 396.856 809.73 394.559C801.125 392.262 793.524 391.113 786.924 391.113C778.988 391.113 773.642 391.635 770.886 392.679C768.129 393.723 766.751 395.248 766.751 397.253C766.751 399.258 768.651 400.866 772.452 402.077C776.253 403.288 781.745 403.894 788.929 403.894C806.639 403.894 819.503 405.92 827.522 409.971C835.542 414.022 839.552 420.225 839.552 428.578C839.552 440.273 835.291 448.69 826.771 453.827C818.25 458.964 805.344 461.533 788.052 461.533C778.78 461.533 769.34 460.51 759.734 458.463C750.127 456.416 741.481 453.43 733.796 449.504Z" fill="#0B566F"/>
</svg>
