<svg xmlns="http://www.w3.org/2000/svg" xmlns:xlink="http://www.w3.org/1999/xlink" id="body_1" width="24" height="24">

<g transform="matrix(0.075329565 0 0 0.075329565 0 0)">
    <path d="M274.1 35.5L174.6 109.4L193 65.8L274.1 35.5z" stroke="#E2761B" stroke-width="1" stroke-linecap="square" fill="#E2761B" fill-rule="nonzero" />
    <path d="M44.4 35.5L143.1 110.1L125.600006 65.8L44.4 35.5zM238.29999 206.8L211.79999 247.4L268.5 263L284.8 207.7zM33.899994 207.7L50.1 263L106.8 247.4L80.3 206.79999z" stroke="#E4761B" stroke-width="1" stroke-linecap="square" fill="#E4761B" fill-rule="nonzero" />
    <path d="M103.6 138.2L87.799995 162.09999L144.09999 164.59999L142.09999 104.09999L103.6 138.2zM214.9 138.2L175.9 103.399994L174.59999 164.59999L230.79999 162.09999zM106.8 247.4L140.6 230.9L111.40001 208.09999zM177.9 230.9L211.79999 247.4L207.09999 208.09999z" stroke="#E4761B" stroke-width="1" stroke-linecap="square" fill="#E4761B" fill-rule="nonzero" />
    <path d="M211.8 247.4L177.9 230.9L180.59999 253L180.29999 262.3L211.8 247.4zM106.8 247.4L138.3 262.3L138.1 252.99998L140.6 230.89998z" stroke="#D7C1B3" stroke-width="1" stroke-linecap="square" fill="#D7C1B3" fill-rule="nonzero" />
    <path d="M138.8 193.5L110.600006 185.2L130.5 176.09999L138.8 193.5zM179.70001 193.5L188.00002 176.1L208.00002 185.20001z" stroke="#233447" stroke-width="1" stroke-linecap="square" fill="#233447" fill-rule="nonzero" />
    <path d="M106.8 247.4L111.600006 206.79999L80.3 207.69998L106.8 247.4zM207 206.8L211.8 247.4L238.3 207.7zM230.8 162.1L174.6 164.6L179.8 193.5L188.1 176.1L208.1 185.20001zM110.600006 185.20001L130.6 176.1L138.8 193.5L144.1 164.6L87.8 162.1z" stroke="#CD6116" stroke-width="1" stroke-linecap="square" fill="#CD6116" fill-rule="nonzero" />
    <path d="M87.8 162.1L111.4 208.1L110.6 185.20001L87.8 162.1zM208.1 185.20001L207.1 208.1L230.8 162.1zM144.1 164.6L138.8 193.5L145.40001 227.6L146.90001 182.70001zM174.6 164.6L171.90001 182.6L173.1 227.6L179.8 193.5z" stroke="#E4751F" stroke-width="1" stroke-linecap="square" fill="#E4751F" fill-rule="nonzero" />
    <path d="M179.8 193.5L173.1 227.6L177.90001 230.90001L207.1 208.1L208.1 185.20001L179.8 193.5zM110.600006 185.2L111.40001 208.09999L140.6 230.9L145.40001 227.59999L138.8 193.5z" stroke="#F6851B" stroke-width="1" stroke-linecap="square" fill="#F6851B" fill-rule="nonzero" />
    <path d="M180.3 262.3L180.6 252.99998L178.1 250.79999L140.40001 250.79999L138.1 252.99998L138.3 262.3L106.8 247.4L117.8 256.4L140.1 271.9L178.40001 271.9L200.8 256.4L211.8 247.4L180.3 262.3z" stroke="#C0AD9E" stroke-width="1" stroke-linecap="square" fill="#C0AD9E" fill-rule="nonzero" />
    <path d="M177.9 230.9L173.09999 227.59999L145.4 227.59999L140.59999 230.9L138.09999 253L140.4 250.8L178.09999 250.8L180.59999 253L177.9 230.9z" stroke="#161616" stroke-width="1" stroke-linecap="square" fill="#161616" fill-rule="nonzero" />
    <path d="M278.3 114.2L286.8 73.399994L274.09998 35.499992L177.89998 106.899994L214.89998 138.2L267.19998 153.5L278.8 140L273.8 136.4L281.8 129.09999L275.59998 124.29999L283.59998 118.19999L278.3 114.2zM31.8 73.4L40.3 114.2L34.899998 118.2L42.899998 124.299995L36.8 129.09999L44.8 136.4L39.8 140L51.3 153.5L103.6 138.2L140.6 106.899994L44.40001 35.499992z" stroke="#763D16" stroke-width="1" stroke-linecap="square" fill="#763D16" fill-rule="nonzero" />
    <path d="M267.2 153.5L214.90001 138.2L230.8 162.09999L207.1 208.09999L238.3 207.7L284.8 207.7L267.2 153.5zM103.600006 138.2L51.300007 153.5L33.90001 207.7L80.30001 207.7L111.40001 208.09999L87.80001 162.09999zM174.6 164.59999L177.90001 106.899994L193.1 65.799995L125.600006 65.799995L140.6 106.899994L144.1 164.59999L145.3 182.79999L145.40001 227.59999L173.1 227.59999L173.3 182.79999z" stroke="#F6851B" stroke-width="1" stroke-linecap="square" fill="#F6851B" fill-rule="nonzero" />
</g>
</svg>