<svg width="30" height="30" viewBox="0 0 30 30" fill="none" xmlns="http://www.w3.org/2000/svg">
<path d="M25.8098 3.34277L16.4407 10.3013L18.1733 6.19588L25.8098 3.34277Z" fill="#E2761B" stroke="#E2761B" stroke-linecap="round" stroke-linejoin="round"/>
<path d="M4.18091 3.34277L13.4747 10.3673L11.8269 6.19588L4.18091 3.34277Z" fill="#E4761B" stroke="#E4761B" stroke-linecap="round" stroke-linejoin="round"/>
<path d="M22.4389 19.4727L19.9436 23.2956L25.2826 24.7646L26.8174 19.5574L22.4389 19.4727Z" fill="#E4761B" stroke="#E4761B" stroke-linecap="round" stroke-linejoin="round"/>
<path d="M3.19214 19.5574L4.71756 24.7646L10.0565 23.2956L7.56125 19.4727L3.19214 19.5574Z" fill="#E4761B" stroke="#E4761B" stroke-linecap="round" stroke-linejoin="round"/>
<path d="M9.75534 13.0132L8.26758 15.2636L13.5689 15.499L13.3806 9.80225L9.75534 13.0132Z" fill="#E4761B" stroke="#E4761B" stroke-linecap="round" stroke-linejoin="round"/>
<path d="M20.2354 13.0132L16.5631 9.73633L16.4407 15.499L21.7326 15.2636L20.2354 13.0132Z" fill="#E4761B" stroke="#E4761B" stroke-linecap="round" stroke-linejoin="round"/>
<path d="M10.0566 23.2958L13.2393 21.7421L10.4898 19.5952L10.0566 23.2958Z" fill="#E4761B" stroke="#E4761B" stroke-linecap="round" stroke-linejoin="round"/>
<path d="M16.7515 21.7421L19.9436 23.2958L19.501 19.5952L16.7515 21.7421Z" fill="#E4761B" stroke="#E4761B" stroke-linecap="round" stroke-linejoin="round"/>
<path d="M19.9433 23.2956L16.7512 21.7419L17.0055 23.8229L16.9772 24.6986L19.9433 23.2956Z" fill="#D7C1B3" stroke="#D7C1B3" stroke-linecap="round" stroke-linejoin="round"/>
<path d="M10.0564 23.2956L13.0225 24.6986L13.0037 23.8229L13.2391 21.7419L10.0564 23.2956Z" fill="#D7C1B3" stroke="#D7C1B3" stroke-linecap="round" stroke-linejoin="round"/>
<path d="M13.0697 18.2204L10.4143 17.4389L12.2881 16.582L13.0697 18.2204Z" fill="#233447" stroke="#233447" stroke-linecap="round" stroke-linejoin="round"/>
<path d="M16.9209 18.2204L17.7024 16.582L19.5857 17.4389L16.9209 18.2204Z" fill="#233447" stroke="#233447" stroke-linecap="round" stroke-linejoin="round"/>
<path d="M10.0566 23.2956L10.5085 19.4727L7.56128 19.5574L10.0566 23.2956Z" fill="#CD6116" stroke="#CD6116" stroke-linecap="round" stroke-linejoin="round"/>
<path d="M19.4917 19.4727L19.9437 23.2956L22.439 19.5574L19.4917 19.4727Z" fill="#CD6116" stroke="#CD6116" stroke-linecap="round" stroke-linejoin="round"/>
<path d="M21.7326 15.2637L16.4407 15.4991L16.9303 18.2204L17.7119 16.5819L19.5951 17.4388L21.7326 15.2637Z" fill="#CD6116" stroke="#CD6116" stroke-linecap="round" stroke-linejoin="round"/>
<path d="M10.4145 17.4388L12.2977 16.5819L13.0698 18.2204L13.5689 15.4991L8.26758 15.2637L10.4145 17.4388Z" fill="#CD6116" stroke="#CD6116" stroke-linecap="round" stroke-linejoin="round"/>
<path d="M8.26733 15.2637L10.4896 19.5951L10.4142 17.4388L8.26733 15.2637Z" fill="#E4751F" stroke="#E4751F" stroke-linecap="round" stroke-linejoin="round"/>
<path d="M19.5951 17.4388L19.501 19.5951L21.7326 15.2637L19.5951 17.4388Z" fill="#E4751F" stroke="#E4751F" stroke-linecap="round" stroke-linejoin="round"/>
<path d="M13.5686 15.499L13.0696 18.2203L13.691 21.4312L13.8323 17.2034L13.5686 15.499Z" fill="#E4751F" stroke="#E4751F" stroke-linecap="round" stroke-linejoin="round"/>
<path d="M16.4405 15.499L16.1863 17.1939L16.2993 21.4312L16.9302 18.2203L16.4405 15.499Z" fill="#E4751F" stroke="#E4751F" stroke-linecap="round" stroke-linejoin="round"/>
<path d="M16.9302 18.2203L16.2993 21.4312L16.7513 21.7419L19.5008 19.595L19.595 17.4387L16.9302 18.2203Z" fill="#FFA000" stroke="#FFA000" stroke-linecap="round" stroke-linejoin="round"/>
<path d="M10.4143 17.4387L10.4896 19.595L13.2392 21.7419L13.6911 21.4312L13.0697 18.2203L10.4143 17.4387Z" fill="#FFA000" stroke="#FFA000" stroke-linecap="round" stroke-linejoin="round"/>
<path d="M16.9773 24.6987L17.0055 23.823L16.7701 23.6158H13.2202L13.0037 23.823L13.0225 24.6987L10.0564 23.2957L11.0922 24.1431L13.192 25.6026H16.7984L18.9076 24.1431L19.9434 23.2957L16.9773 24.6987Z" fill="#C0AD9E" stroke="#C0AD9E" stroke-linecap="round" stroke-linejoin="round"/>
<path d="M16.7513 21.7419L16.2993 21.4312H13.691L13.2391 21.7419L13.0037 23.8229L13.2202 23.6157H16.7701L17.0055 23.8229L16.7513 21.7419Z" fill="#161616" stroke="#161616" stroke-linecap="round" stroke-linejoin="round"/>
<path d="M26.2053 10.7533L27.0057 6.91151L25.8098 3.34277L16.7515 10.0659L20.2355 13.0132L25.1601 14.4539L26.2524 13.1827L25.7816 12.8437L26.5349 12.1563L25.9511 11.7044L26.7044 11.13L26.2053 10.7533Z" fill="#763D16" stroke="#763D16" stroke-linecap="round" stroke-linejoin="round"/>
<path d="M2.99438 6.91151L3.79476 10.7533L3.28629 11.13L4.03958 11.7044L3.46519 12.1563L4.21849 12.8437L3.74768 13.1827L4.83054 14.4539L9.75521 13.0132L13.2392 10.0659L4.18083 3.34277L2.99438 6.91151Z" fill="#763D16" stroke="#763D16" stroke-linecap="round" stroke-linejoin="round"/>
<path d="M25.1601 14.4539L20.2354 13.0132L21.7326 15.2637L19.501 19.5951L22.4388 19.5574H26.8174L25.1601 14.4539Z" fill="#FFA000" stroke="#FFA000" stroke-linecap="round" stroke-linejoin="round"/>
<path d="M9.75523 13.0132L4.83056 14.4539L3.19214 19.5574H7.56125L10.4897 19.5951L8.26747 15.2637L9.75523 13.0132Z" fill="#FFA000" stroke="#FFA000" stroke-linecap="round" stroke-linejoin="round"/>
<path d="M16.4406 15.499L16.7513 10.0659L18.1826 6.1958H11.8267L13.2391 10.0659L13.5687 15.499L13.6817 17.2127L13.6911 21.4312H16.2994L16.3182 17.2127L16.4406 15.499Z" fill="#FFA000" stroke="#FFA000" stroke-linecap="round" stroke-linejoin="round"/>
</svg>
