<?xml version="1.0" encoding="UTF-8"?>
<svg xmlns="http://www.w3.org/2000/svg" xmlns:xlink="http://www.w3.org/1999/xlink" width="22px" height="24px" viewBox="0 0 22 24" version="1.1">
<g id="surface1">
<path style=" stroke:none;fill-rule:evenodd;fill:rgb(99.215686%,81.568627%,35.686275%);fill-opacity:1;" d="M 13.113281 1.175781 L 13.101562 0 L 16.011719 0 C 15.996094 0.332031 15.980469 1.125 15.964844 2.15625 C 19.542969 3.96875 21.996094 7.675781 21.996094 11.949219 C 21.996094 18.003906 17.066406 22.921875 10.996094 22.921875 C 10.347656 22.921875 9.707031 22.867188 9.085938 22.757812 L 9.113281 23.964844 L 6.0625 23.964844 C 6.078125 23.605469 6.085938 22.800781 6.089844 21.773438 C 2.480469 19.972656 0 16.246094 0 11.949219 C 0 5.890625 4.929688 0.972656 10.996094 0.972656 C 11.722656 0.972656 12.429688 1.042969 13.113281 1.175781 Z M 15.910156 5.898438 C 17.675781 7.324219 18.804688 9.507812 18.804688 11.949219 C 18.804688 16.246094 15.304688 19.738281 10.996094 19.738281 C 10.316406 19.738281 9.652344 19.652344 9.023438 19.484375 L 8.820312 9.515625 L 11.691406 15.980469 L 15.941406 15.980469 C 15.886719 14.644531 15.855469 13.210938 15.855469 11.679688 C 15.855469 10.933594 15.878906 8.417969 15.910156 5.898438 Z M 13.144531 4.457031 L 13.234375 14.039062 L 10.351562 7.394531 L 5.984375 7.394531 C 6.046875 8.925781 6.082031 10.355469 6.082031 11.679688 C 6.082031 12.371094 6.09375 15.210938 6.09375 18.007812 C 4.324219 16.582031 3.191406 14.394531 3.191406 11.949219 C 3.191406 7.648438 6.691406 4.160156 10.996094 4.160156 C 11.742188 4.160156 12.460938 4.261719 13.144531 4.457031 Z M 13.144531 4.457031 "/>
</g>
</svg>
