<svg width="12" height="10" viewBox="0 0 12 10" fill="none" xmlns="http://www.w3.org/2000/svg">
<path fill-rule="evenodd" clip-rule="evenodd" d="M1.52684 3.89446C4.44205 2.62435 6.38597 1.78702 7.35862 1.38246C10.1357 0.227368 10.7128 0.0267158 11.0889 0.0200902C11.1716 0.0186329 11.3566 0.0391343 11.4764 0.136353C11.5776 0.218443 11.6054 0.329335 11.6187 0.407166C11.632 0.484996 11.6486 0.662295 11.6355 0.800832C11.485 2.38207 10.8338 6.21931 10.5025 7.99032C10.3623 8.7397 10.0863 8.99096 9.81909 9.01555C9.23837 9.06899 8.7974 8.63177 8.23494 8.26307C7.35481 7.68614 6.8576 7.32699 6.00328 6.76401C5.01596 6.11339 5.656 5.75579 6.21867 5.17138C6.36592 5.01844 8.92458 2.69115 8.9741 2.48002C8.9803 2.45362 8.98604 2.3552 8.92757 2.30323C8.8691 2.25125 8.7828 2.26903 8.72053 2.28316C8.63225 2.3032 7.22623 3.23252 4.50247 5.07114C4.10337 5.34519 3.74189 5.47871 3.41801 5.47171C3.06095 5.464 2.37413 5.26983 1.86355 5.10386C1.23729 4.90029 0.739563 4.79266 0.782904 4.44694C0.805479 4.26687 1.05346 4.08271 1.52684 3.89446Z" fill="#FBF8F0"/>
</svg>
