<svg width="13" height="11" viewBox="0 0 13 11" fill="none" xmlns="http://www.w3.org/2000/svg">
<path d="M4.17011 10.2751C8.60511 10.2751 11.0301 6.6001 11.0301 3.4151C11.0301 3.3101 11.0301 3.2051 11.0251 3.1051C11.4951 2.7651 11.9051 2.3401 12.2301 1.8551C11.8001 2.0451 11.3351 2.1751 10.8451 2.2351C11.3451 1.9351 11.7251 1.4651 11.9051 0.900098C11.4401 1.1751 10.9251 1.3751 10.3751 1.4851C9.93511 1.0151 9.31011 0.725098 8.61511 0.725098C7.28511 0.725098 6.20511 1.8051 6.20511 3.1351C6.20511 3.3251 6.22511 3.5101 6.27011 3.6851C4.26511 3.5851 2.49011 2.6251 1.30011 1.1651C1.09511 1.5201 0.975108 1.9351 0.975108 2.3751C0.975108 3.2101 1.40011 3.9501 2.05011 4.3801C1.65511 4.3701 1.28511 4.2601 0.960107 4.0801C0.960107 4.0901 0.960107 4.1001 0.960107 4.1101C0.960107 5.2801 1.79011 6.2501 2.89511 6.4751C2.69511 6.5301 2.48011 6.5601 2.26011 6.5601C2.10511 6.5601 1.95511 6.5451 1.80511 6.5151C2.11011 7.4751 3.00011 8.1701 4.05511 8.1901C3.23011 8.8351 2.19011 9.2201 1.06011 9.2201C0.865107 9.2201 0.675107 9.2101 0.485107 9.1851C1.54011 9.8751 2.81011 10.2751 4.17011 10.2751Z" fill="#FBF8F0"/>
</svg>
