<svg width="16" height="16" viewBox="0 0 16 16" fill="none" xmlns="http://www.w3.org/2000/svg">
<path fill-rule="evenodd" clip-rule="evenodd" d="M1.33317 2C1.70136 2 1.99984 2.29848 1.99984 2.66667V12C1.99984 12.3682 2.29831 12.6667 2.6665 12.6667H14.6665C15.0347 12.6667 15.3332 12.9651 15.3332 13.3333C15.3332 13.7015 15.0347 14 14.6665 14H2.6665C1.56193 14 0.666504 13.1046 0.666504 12V2.66667C0.666504 2.29848 0.964981 2 1.33317 2Z" fill="white"/>
<path fill-rule="evenodd" clip-rule="evenodd" d="M13.6643 3.4212C13.984 3.60388 14.095 4.01111 13.9123 4.33079L11.788 8.04841C11.315 8.87616 10.3235 9.25497 9.41906 8.95349L7.33804 8.25982C7.07307 8.1715 6.78113 8.25771 6.60664 8.47582L4.52077 11.0832C4.29076 11.3707 3.87123 11.4173 3.58372 11.1873C3.29622 10.9573 3.2496 10.5377 3.47961 10.2502L5.56549 7.64289C6.08893 6.98858 6.96476 6.72994 7.75968 6.99491L9.84069 7.68858C10.1422 7.78908 10.4727 7.6628 10.6303 7.38689L12.7547 3.66927C12.9374 3.3496 13.3446 3.23853 13.6643 3.4212Z" fill="white"/>
</svg>
