<svg width="16" height="16" viewBox="0 0 16 16" fill="none" xmlns="http://www.w3.org/2000/svg">
<path d="M7.96444 7.76785e-05C3.54523 0.0208182 -0.0191814 3.61782 7.76785e-05 8.03556C0.0208182 12.4533 3.61782 16.0192 8.03556 15.9999C12.4533 15.9792 16.0192 12.3822 15.9999 7.96444C15.9792 3.54523 12.3822 -0.0191814 7.96444 7.76785e-05ZM6.95112 7.60741C6.1615 7.60741 5.52002 6.96742 5.52002 6.1778C5.52002 5.38817 6.16002 4.74818 6.95112 4.74818C7.74074 4.74818 8.38074 5.38817 8.38074 6.1778C8.38074 6.96742 7.74074 7.60741 6.95112 7.60741ZM8.09185 9.15406L8.09926 9.14517L8.10667 9.13629C8.51555 9.39999 8.98073 9.49184 9.44591 9.50665C9.91257 9.5185 10.3866 9.48443 10.8548 9.38962C11.3214 9.29332 11.7807 9.14962 12.2237 8.96592C12.4725 8.8637 12.72 8.7511 12.9555 8.61925C12.957 8.61777 12.9585 8.61777 12.96 8.61629C13.1066 8.5274 13.2503 8.43555 13.3911 8.33926C13.4222 8.31703 13.4518 8.29481 13.4799 8.27111L13.4829 8.27555L13.4948 8.29037C13.1348 8.61777 12.7066 8.86073 12.2711 9.07555C11.8311 9.28295 11.3718 9.45332 10.8977 9.57628C10.4252 9.69776 9.93183 9.79109 9.43258 9.74517C8.94073 9.69924 8.42222 9.52739 8.09185 9.15406ZM11.7629 7.60741C11.7629 7.43556 11.9007 7.29778 12.0711 7.2963C12.2429 7.2963 12.3807 7.43408 12.3822 7.60445C12.3822 7.77482 12.2444 7.91556 12.074 7.91556C11.9037 7.91704 11.7629 7.77926 11.7629 7.60741ZM9.31258 15.2814C9.00295 13.1155 10.8933 10.9955 11.96 9.91109C12.2014 9.66517 12.5763 9.32591 12.9244 8.96592C14.3081 7.6726 14.5836 6.12594 11.7511 5.35262C11.2148 5.19706 10.6578 4.97633 10.0948 4.75411C10.077 4.70225 10.0563 4.65337 10.0341 4.60744C9.96887 4.49633 9.85628 4.36744 9.68443 4.22226C9.31554 3.90226 8.62518 3.91115 8.02815 4.05189C7.36741 3.89634 6.71705 3.84152 6.09039 3.99115C3.35116 4.74522 2.91116 6.0815 2.8045 7.69186C2.65931 9.4311 2.57487 10.7274 1.91561 12.2088C1.0934 11.0222 0.608961 9.58517 0.603035 8.03259C0.585257 3.94819 3.88152 0.620812 7.96741 0.603035C12.0533 0.585257 15.3792 3.88152 15.3984 7.96741C15.4133 11.6163 12.7851 14.6607 9.31258 15.2814Z" fill="#231F20"/>
<path d="M7.95714 6.1911C7.95714 6.74665 7.50678 7.19701 6.95123 7.19701C6.39568 7.19701 5.94531 6.74665 5.94531 6.1911C5.94531 5.63555 6.39568 5.18518 6.95123 5.18518C7.50678 5.18518 7.95714 5.63555 7.95714 6.1911Z" fill="#231F20"/>
</svg>
