<svg width="16" height="16" viewBox="0 0 16 16" fill="none" xmlns="http://www.w3.org/2000/svg">
<path d="M3.32483 7.60484C3.32485 7.51537 3.34251 7.42678 3.37679 7.34416C3.41107 7.26155 3.4613 7.18653 3.5246 7.12342C3.5879 7.06031 3.66302 7.01035 3.74564 6.9764C3.82827 6.94246 3.91677 6.9252 4.00607 6.92561L5.1355 6.92931C5.31558 6.92931 5.48828 7.00098 5.61562 7.12856C5.74296 7.25614 5.81449 7.42917 5.81449 7.60959V11.8886C5.9417 11.8508 6.10449 11.8105 6.28364 11.7683C6.40775 11.739 6.51836 11.6686 6.59753 11.5685C6.6767 11.4683 6.7198 11.3444 6.71983 11.2166V5.90922C6.71983 5.72879 6.79136 5.55574 6.91869 5.42815C7.04603 5.30055 7.21873 5.22885 7.39883 5.22881H8.53168C8.71177 5.22885 8.88447 5.30055 9.01181 5.42815C9.13914 5.55574 9.21067 5.72879 9.21067 5.90922V10.8353C9.21067 10.8353 9.49408 10.7204 9.76998 10.6037C9.8725 10.5602 9.95999 10.4875 10.0215 10.3946C10.0831 10.3017 10.1159 10.1926 10.116 10.0811V4.20846C10.116 4.02806 10.1875 3.85505 10.3148 3.72748C10.4421 3.59991 10.6148 3.52822 10.7949 3.52818H11.9265C12.1065 3.52836 12.279 3.60011 12.4062 3.72767C12.5334 3.85522 12.6049 4.02815 12.6049 4.20846V9.04437C13.586 8.332 14.5803 7.47514 15.3694 6.44489C15.4839 6.29534 15.5596 6.11973 15.5899 5.93371C15.6201 5.7477 15.604 5.55708 15.5428 5.37884C15.1776 4.32602 14.597 3.36118 13.8382 2.54607C13.0794 1.73096 12.1591 1.08353 11.1362 0.645206C10.1133 0.206882 9.0104 -0.0126821 7.89796 0.000565707C6.78553 0.0138135 5.6881 0.25958 4.67591 0.72214C3.66372 1.1847 2.75906 1.85386 2.01981 2.68681C1.28056 3.51976 0.72301 4.49815 0.382832 5.55938C0.0426537 6.6206 -0.0726584 7.74129 0.044274 8.84973C0.161206 9.95817 0.507809 11.0299 1.0619 11.9965C1.15844 12.1632 1.30046 12.2989 1.47129 12.3875C1.64212 12.4762 1.83466 12.5142 2.02629 12.497C2.24036 12.4781 2.5069 12.4514 2.82379 12.4142C2.96171 12.3985 3.08904 12.3325 3.18153 12.2288C3.27402 12.1251 3.32522 11.9909 3.32536 11.8519V7.60484" fill="#12161C"/>
<path d="M3.30078 14.4672C4.49364 15.3366 5.9033 15.8584 7.37382 15.975C8.84434 16.0916 10.3184 15.7983 11.6329 15.1276C12.9473 14.457 14.051 13.4351 14.8218 12.175C15.5925 10.9149 16.0003 9.46569 16.0001 7.9878C16.0001 7.8029 15.9915 7.62091 15.9792 7.43945C13.0577 11.8049 7.66346 13.8458 3.30078 14.4672Z" fill="#F0B90B"/>
</svg>
