<svg width="17" height="16" viewBox="0 0 17 16" fill="none" xmlns="http://www.w3.org/2000/svg">
<path fill-rule="evenodd" clip-rule="evenodd" d="M15.0003 7.99992C15.0003 11.6818 12.0156 14.6666 8.33366 14.6666C4.65176 14.6666 1.66699 11.6818 1.66699 7.99992C1.66699 4.31802 4.65176 1.33325 8.33366 1.33325C12.0156 1.33325 15.0003 4.31802 15.0003 7.99992ZM8.33366 7.33325C8.70185 7.33325 9.00033 7.63173 9.00033 7.99992V11.3338C9.00033 11.702 8.70185 12.0005 8.33366 12.0005C7.96547 12.0005 7.66699 11.702 7.66699 11.3338V7.99992C7.66699 7.63173 7.96547 7.33325 8.33366 7.33325ZM8.33366 5.99992C8.70185 5.99992 9.00033 5.70144 9.00033 5.33325C9.00033 4.96506 8.70185 4.66659 8.33366 4.66659C7.96547 4.66659 7.66699 4.96506 7.66699 5.33325C7.66699 5.70144 7.96547 5.99992 8.33366 5.99992Z" fill="#6F767E"/>
</svg>
